<svg width="48" height="48" viewBox="0 0 48 48" fill="none" xmlns="http://www.w3.org/2000/svg">
<g clip-path="url(#clip0_1_445)">
<path d="M12.1214 16.9828C11.7863 16.6477 11.2414 16.6477 10.9063 16.9828C10.5703 17.3188 10.5703 17.8628 10.9063 18.198C11.2415 18.534 11.7863 18.534 12.1214 18.198C12.4573 17.8628 12.4573 17.3188 12.1214 16.9828Z" fill="#295C7A"/>
<path d="M23.7593 40.4759C24.1382 39.9627 24.343 39.3444 24.343 38.6942C24.343 37.0358 22.9938 35.6865 21.3353 35.6865H6.72639C5.92262 35.6865 5.16731 35.9993 4.59952 36.5673C4.03148 37.1352 3.71866 37.8905 3.71866 38.6942C3.71866 39.3602 3.9366 39.976 4.30433 40.4749C2.93595 41.1943 2 42.6295 2 44.2799V45.1393C2 45.6139 2.38483 45.9987 2.85938 45.9987H25.2023C25.6768 45.9987 26.0616 45.6139 26.0616 45.1393V44.2799C26.0616 42.6303 25.1266 41.1957 23.7593 40.4759ZM5.81477 37.7825C6.05805 37.5391 6.38187 37.4051 6.72639 37.4051H21.3353C22.046 37.4051 22.6242 37.9834 22.6242 38.6941C22.6242 39.0387 22.4902 39.3624 22.2468 39.6058C22.0035 39.8492 21.6797 39.9831 21.3352 39.9831H6.72639C6.0156 39.9831 5.43741 39.4049 5.43741 38.6942C5.43741 38.3496 5.57139 38.0258 5.81477 37.7825ZM3.71866 44.2799C3.71866 42.8584 4.87521 41.7019 6.2967 41.7019H6.72639H21.3353H21.7649C23.1864 41.7019 24.343 42.8584 24.343 44.2799H3.71866Z" fill="#295C7A"/>
<path d="M45.2002 38.1043C44.9083 37.652 44.5601 37.2521 44.1651 36.9155L40.1496 33.4133C40.1184 33.3662 40.0821 33.3216 40.0406 33.28C39.9708 33.2104 39.8917 33.156 39.8077 33.1152L37.3794 30.9973L26.1396 21.1926C26.5997 20.7116 26.8531 20.0826 26.8531 19.4138C26.8531 18.7247 26.5848 18.0772 26.0973 17.5897C25.8847 17.3774 25.6431 17.2104 25.3848 17.0881L26.4247 16.0483C26.7153 16.1255 27.0139 16.1651 27.3128 16.1651C28.1929 16.165 29.0731 15.83 29.743 15.16C30.3926 14.5106 30.7502 13.6474 30.7502 12.7293C30.7502 11.8112 30.3926 10.948 29.7431 10.2986L22.4515 3.0071C21.8021 2.35767 20.9387 2 20.0204 2C19.1025 2 18.2394 2.35767 17.5901 3.0071C16.6926 3.90463 16.3971 5.179 16.7019 6.32558L6.32705 16.7003C6.04036 16.6241 5.74207 16.5839 5.43734 16.5839C4.51884 16.5839 3.65594 16.9413 3.00703 17.5901C1.66675 18.9304 1.66675 21.1112 3.00703 22.4516L10.2986 29.7432C10.9688 30.4133 11.849 30.7484 12.7293 30.7484C13.6097 30.7484 14.4899 30.4133 15.1601 29.7432C16.0577 28.8456 16.3531 27.5713 16.0484 26.4247L17.0861 25.3869C17.2108 25.6473 17.38 25.8876 17.5902 26.0977C18.0771 26.5847 18.7245 26.8529 19.4134 26.8529C20.0815 26.8529 20.7102 26.6 21.1919 26.1404L33.1635 39.895C33.1965 39.9466 33.235 39.9956 33.2801 40.0407C33.2954 40.056 33.3118 40.0701 33.328 40.084L36.8954 44.1827C36.9841 44.2873 37.0788 44.3903 37.1772 44.4887C38.157 45.4681 39.4511 45.9997 40.8098 45.9997C41.0493 45.9997 41.2911 45.9832 41.5332 45.9496C43.1513 45.7257 44.5497 44.7577 45.3697 43.2935C46.268 41.6888 46.2012 39.6515 45.2002 38.1043ZM18.8055 4.22243C19.1303 3.89767 19.5619 3.71875 20.0205 3.71875C20.4798 3.71875 20.9116 3.89767 21.2363 4.22243L28.5279 11.514C28.8526 11.8387 29.0315 12.2704 29.0315 12.7294C29.0315 13.1884 28.8526 13.62 28.5278 13.9448C27.8579 14.6149 26.7677 14.6149 26.0978 13.9448L18.8059 6.65291C18.8058 6.65274 18.8057 6.65266 18.8055 6.65248C18.1355 5.98252 18.1355 4.8924 18.8055 4.22243ZM13.9448 28.5279C13.2747 29.198 12.184 29.1981 11.5139 28.5279L4.22235 21.2363C3.55213 20.5661 3.55213 19.4757 4.22235 18.8054C4.54651 18.4812 4.97809 18.3026 5.43734 18.3026C5.8965 18.3026 6.32782 18.4811 6.65189 18.8051L13.9447 26.0979C14.6149 26.7678 14.6149 27.858 13.9448 28.5279ZM17.5629 22.4796L15.1601 24.8826L7.86774 17.5903L17.5901 7.86773L24.8823 15.16L22.4751 17.5674C22.4672 17.5748 22.4596 17.582 22.4513 17.5902L17.5926 22.449C17.5825 22.4589 17.5728 22.4692 17.5629 22.4796ZM20.6314 24.2723C20.6297 24.2741 20.6281 24.2757 20.6264 24.2774L20.0212 24.8826C19.8589 25.0448 19.6431 25.1342 19.4133 25.1342C19.1836 25.1342 18.9677 25.0448 18.8054 24.8825C18.6429 24.7201 18.5535 24.504 18.5535 24.2741C18.5535 24.0492 18.6393 23.8375 18.7951 23.6778L23.6765 18.7965C24.011 18.4711 24.5519 18.4752 24.8825 18.8054C25.0449 18.9678 25.1344 19.1839 25.1344 19.4138C25.1344 19.6435 25.0452 19.8589 24.8824 20.0213L24.2808 20.6229C24.2766 20.627 24.2725 20.6311 24.2685 20.6352L20.6314 24.2723ZM22.411 24.9233L24.9226 22.4117L35.5567 31.6874L31.6763 35.5679L22.411 24.9233ZM32.8073 36.8674L36.8549 32.8198L38.1531 33.9522L33.9383 38.1671L32.8073 36.8674ZM43.8702 42.4539C43.3156 43.4441 42.3779 44.0977 41.2976 44.2472C40.2198 44.3964 39.1608 44.0414 38.3923 43.2733C38.3262 43.2073 38.263 43.1385 38.204 43.0687C38.2013 43.0654 38.1985 43.0621 38.1957 43.059L35.0693 39.4666L39.4513 35.0845L43.0392 38.2141C43.0419 38.2165 43.0446 38.2188 43.0475 38.2212C43.316 38.4495 43.5543 38.7238 43.7565 39.0371C44.4064 40.0413 44.4519 41.4145 43.8702 42.4539Z" fill="#295C7A"/>
<path d="M18.1979 10.906C17.8622 10.5704 17.3182 10.5704 16.9825 10.906L13.3364 14.5521C13.0008 14.8877 13.0008 15.4319 13.3364 15.7674C13.5042 15.9352 13.7241 16.0191 13.944 16.0191C14.164 16.0191 14.3839 15.9351 14.5517 15.7674L18.1979 12.1212C18.5334 11.7857 18.5334 11.2417 18.1979 10.906Z" fill="#295C7A"/>
</g>
<defs>
<clipPath id="clip0_1_445">
<rect width="44" height="44" fill="white" transform="translate(2 2)"/>
</clipPath>
</defs>
</svg>
