<svg width="43" height="36" viewBox="0 0 43 36" fill="none" xmlns="http://www.w3.org/2000/svg">
<g clip-path="url(#clip0_1_464)">
<path d="M23.3218 32.0898H19.6782C19.5159 32.0898 19.3601 32.0264 19.2453 31.9135C19.1305 31.8007 19.066 31.6477 19.066 31.4881V2.42925C19.066 1.79482 19.3225 1.18636 19.7789 0.737751C20.2354 0.289138 20.8545 0.0371094 21.5 0.0371094C22.1456 0.0371094 22.7646 0.289138 23.2211 0.737751C23.6776 1.18636 23.934 1.79482 23.934 2.42925V31.4887C23.9338 31.6482 23.8693 31.8011 23.7545 31.9137C23.6397 32.0265 23.4841 32.0898 23.3218 32.0898ZM20.2904 30.8865H22.7097V2.42925C22.7097 2.11395 22.5822 1.81156 22.3554 1.58861C22.1285 1.36565 21.8208 1.2404 21.5 1.2404C21.1792 1.2404 20.8715 1.36565 20.6447 1.58861C20.4178 1.81156 20.2904 2.11395 20.2904 2.42925V30.8865Z" fill="#295C7A"/>
<path d="M6.74675 8.10299H4.64518C4.14656 8.0942 3.67139 7.89336 3.32194 7.5437C2.97249 7.19404 2.77669 6.7235 2.77669 6.23338C2.77669 5.74326 2.97249 5.27273 3.32194 4.92307C3.67139 4.5734 4.14656 4.37256 4.64518 4.36377H6.44863C6.61098 4.36377 6.76669 4.42716 6.88149 4.53999C6.9963 4.65282 7.06079 4.80585 7.06079 4.96541C7.06079 5.12498 6.9963 5.27801 6.88149 5.39084C6.76669 5.50367 6.61098 5.56706 6.44863 5.56706H4.64518C4.46889 5.57227 4.30161 5.64475 4.17879 5.76914C4.05596 5.89353 3.98727 6.06005 3.98727 6.23338C3.98727 6.40671 4.05596 6.57323 4.17879 6.69762C4.30161 6.82201 4.46889 6.8945 4.64518 6.8997H6.74675C6.90911 6.8997 7.06482 6.96309 7.17962 7.07592C7.29442 7.18875 7.35892 7.34178 7.35892 7.50135C7.35892 7.66091 7.29442 7.81395 7.17962 7.92678C7.06482 8.03961 6.90911 8.10299 6.74675 8.10299Z" fill="#295C7A"/>
<path d="M19.6782 8.10299H10.4497C10.2874 8.10299 10.1317 8.03961 10.0169 7.92678C9.90207 7.81395 9.83758 7.66091 9.83758 7.50135C9.83758 7.34178 9.90207 7.18875 10.0169 7.07592C10.1317 6.96309 10.2874 6.8997 10.4497 6.8997H19.066V5.56706H10.7473C10.5849 5.56706 10.4292 5.50367 10.3144 5.39084C10.1996 5.27801 10.1351 5.12498 10.1351 4.96541C10.1351 4.80585 10.1996 4.65282 10.3144 4.53999C10.4292 4.42716 10.5849 4.36377 10.7473 4.36377H19.6782C19.8405 4.36377 19.9962 4.42716 20.111 4.53999C20.2258 4.65282 20.2903 4.80585 20.2903 4.96541V7.50135C20.2903 7.66091 20.2258 7.81395 20.111 7.92678C19.9962 8.03961 19.8405 8.10299 19.6782 8.10299Z" fill="#295C7A"/>
<path d="M32.4168 8.10299H23.3218C23.1595 8.10299 23.0038 8.03961 22.889 7.92678C22.7742 7.81395 22.7097 7.66091 22.7097 7.50135V4.96541C22.7097 4.80585 22.7742 4.65282 22.889 4.53999C23.0038 4.42716 23.1595 4.36377 23.3218 4.36377H32.1193C32.2817 4.36377 32.4374 4.42716 32.5522 4.53999C32.667 4.65282 32.7315 4.80585 32.7315 4.96541C32.7315 5.12498 32.667 5.27801 32.5522 5.39084C32.4374 5.50367 32.2817 5.56706 32.1193 5.56706H23.934V6.8997H32.4168C32.5792 6.8997 32.7349 6.96309 32.8497 7.07592C32.9645 7.18875 33.029 7.34178 33.029 7.50135C33.029 7.66091 32.9645 7.81395 32.8497 7.92678C32.7349 8.03961 32.5792 8.10299 32.4168 8.10299Z" fill="#295C7A"/>
<path d="M38.3487 8.10299H36.2533C36.0909 8.10299 35.9352 8.03961 35.8204 7.92678C35.7056 7.81395 35.6411 7.66091 35.6411 7.50135C35.6411 7.34178 35.7056 7.18875 35.8204 7.07592C35.9352 6.96309 36.0909 6.8997 36.2533 6.8997H38.3487C38.525 6.8945 38.6923 6.82201 38.8151 6.69762C38.9379 6.57323 39.0066 6.40671 39.0066 6.23338C39.0066 6.06005 38.9379 5.89353 38.8151 5.76914C38.6923 5.64475 38.525 5.57227 38.3487 5.56706H36.555C36.3927 5.56706 36.237 5.50367 36.1222 5.39084C36.0074 5.27801 35.9429 5.12498 35.9429 4.96541C35.9429 4.80585 36.0074 4.65282 36.1222 4.53999C36.237 4.42716 36.3927 4.36377 36.555 4.36377H38.3487C38.8473 4.37256 39.3225 4.5734 39.6719 4.92307C40.0214 5.27273 40.2172 5.74326 40.2172 6.23338C40.2172 6.7235 40.0214 7.19404 39.6719 7.5437C39.3225 7.89336 38.8473 8.0942 38.3487 8.10299Z" fill="#295C7A"/>
<path d="M29.2531 35.9618H13.7469C13.654 35.9617 13.5623 35.9409 13.4788 35.9008C13.3953 35.8608 13.3221 35.8026 13.2649 35.7306C13.2077 35.6587 13.1679 35.5749 13.1485 35.4856C13.1291 35.3962 13.1307 35.3038 13.1531 35.2151C13.4055 34.0253 14.0555 32.9526 14.9997 32.1676C15.9439 31.3827 17.1281 30.9306 18.3639 30.8833H24.6361C25.8719 30.9306 27.0561 31.3827 28.0003 32.1676C28.9445 32.9526 29.5945 34.0253 29.8469 35.2151C29.8693 35.3038 29.8709 35.3962 29.8515 35.4856C29.8321 35.5749 29.7923 35.6587 29.7351 35.7306C29.6779 35.8026 29.6047 35.8608 29.5212 35.9008C29.4377 35.9409 29.346 35.9617 29.2531 35.9618ZM14.5935 34.7585H28.4065C28.1151 33.9983 27.6019 33.3395 26.9312 32.8648C26.2605 32.39 25.4621 32.1203 24.6361 32.0896H18.3639C17.5379 32.1203 16.7395 32.39 16.0688 32.8648C15.3981 33.3395 14.8849 33.9983 14.5935 34.7585Z" fill="#295C7A"/>
<path d="M30.9108 35.9621H12.0891C11.9268 35.9621 11.7711 35.8987 11.6563 35.7859C11.5415 35.673 11.477 35.52 11.477 35.3604C11.477 35.2009 11.5415 35.0478 11.6563 34.935C11.7711 34.8222 11.9268 34.7588 12.0891 34.7588H30.9108C31.0732 34.7588 31.2289 34.8222 31.3437 34.935C31.4585 35.0478 31.523 35.2009 31.523 35.3604C31.523 35.52 31.4585 35.673 31.3437 35.7859C31.2289 35.8987 31.0732 35.9621 30.9108 35.9621Z" fill="#295C7A"/>
<path d="M42.3137 23.1882H26.4947C26.3922 23.1883 26.2913 23.1631 26.2013 23.1149C26.1113 23.0667 26.0351 22.9971 25.9796 22.9124C25.9241 22.8278 25.8911 22.7307 25.8837 22.6303C25.8762 22.5298 25.8945 22.4292 25.937 22.3375L32.6586 7.79333C32.6917 7.72118 32.7389 7.65615 32.7977 7.60198C32.8564 7.5478 32.9254 7.50555 33.0007 7.47763C33.0761 7.44972 33.1563 7.43669 33.2368 7.43929C33.3173 7.4419 33.3965 7.46008 33.4698 7.49281C33.5431 7.52554 33.6091 7.57216 33.6641 7.63001C33.7191 7.68787 33.7619 7.75581 33.7901 7.82994C33.8183 7.90408 33.8313 7.98296 33.8284 8.06205C33.8256 8.14115 33.8068 8.21892 33.7733 8.29089L27.4447 21.9849H41.3612L35.0381 8.29089C35.0049 8.21891 34.9864 8.14121 34.9838 8.06223C34.9811 7.98324 34.9943 7.90452 35.0226 7.83055C35.051 7.75658 35.0938 7.68881 35.1488 7.63112C35.2037 7.57343 35.2697 7.52694 35.3429 7.49431C35.4162 7.46168 35.4952 7.44355 35.5756 7.44095C35.656 7.43834 35.7361 7.45132 35.8113 7.47914C35.8866 7.50697 35.9555 7.54909 36.0142 7.6031C36.0729 7.65711 36.1202 7.72195 36.1534 7.79393L42.8683 22.3381C42.9105 22.4295 42.9287 22.5299 42.9214 22.63C42.914 22.7301 42.8813 22.8268 42.8261 22.9113C42.771 22.9958 42.6952 23.0654 42.6057 23.1138C42.5162 23.1622 42.4158 23.1877 42.3137 23.1882Z" fill="#295C7A"/>
<path d="M34.4669 30.8625H34.3396C29.438 30.8625 25.88 27.3826 25.88 22.5875C25.88 22.4279 25.9445 22.2749 26.0593 22.1621C26.1741 22.0492 26.3298 21.9858 26.4922 21.9858H42.3137C42.476 21.9858 42.6317 22.0492 42.7465 22.1621C42.8613 22.2749 42.9258 22.4279 42.9258 22.5875C42.9258 27.3856 39.3679 30.8625 34.4669 30.8625ZM27.1258 23.1891C27.3988 27.0288 30.2876 29.6592 34.3396 29.6592H34.4669C38.5182 29.6592 41.4077 27.0288 41.6801 23.1891H27.1258Z" fill="#295C7A"/>
<path d="M34.4032 8.96078C33.808 8.9609 33.2261 8.78752 32.7311 8.46257C32.2361 8.13763 31.8503 7.67571 31.6224 7.13523C31.3946 6.59476 31.3349 6.00002 31.451 5.42623C31.5671 4.85244 31.8537 4.32537 32.2747 3.9117C32.6956 3.49802 33.2318 3.21632 33.8157 3.10221C34.3995 2.98811 35.0046 3.04673 35.5546 3.27067C36.1045 3.4946 36.5745 3.87379 36.9051 4.36027C37.2357 4.84675 37.4122 5.41867 37.412 6.0037C37.4111 6.78767 37.0938 7.53927 36.5297 8.09362C35.9657 8.64797 35.2009 8.95983 34.4032 8.96078ZM34.4032 4.2493C34.0502 4.24918 33.705 4.35198 33.4113 4.54468C33.1177 4.73738 32.8888 5.01134 32.7536 5.3319C32.6184 5.65247 32.583 6.00524 32.6518 6.3456C32.7206 6.68596 32.8906 6.99862 33.1402 7.24403C33.3898 7.48945 33.7079 7.6566 34.0542 7.72434C34.4004 7.79209 34.7594 7.75738 35.0856 7.62461C35.4118 7.49184 35.6906 7.26698 35.8868 6.97845C36.083 6.68993 36.1877 6.35071 36.1877 6.0037C36.1872 5.53866 35.9991 5.09279 35.6645 4.76389C35.33 4.435 34.8764 4.24994 34.4032 4.2493Z" fill="#295C7A"/>
<path d="M16.5047 23.1884H0.686316C0.58389 23.1883 0.483108 23.1631 0.393202 23.1148C0.303296 23.0666 0.22714 22.997 0.171709 22.9123C0.116278 22.8277 0.0833452 22.7307 0.0759261 22.6303C0.068507 22.5299 0.0868392 22.4293 0.129244 22.3376L6.85207 7.79349C6.9192 7.64813 7.04234 7.53493 7.1944 7.47879C7.34646 7.42266 7.51498 7.42819 7.66288 7.49417C7.81079 7.56015 7.92597 7.68118 7.98309 7.83062C8.0402 7.98006 8.03457 8.14569 7.96744 8.29105L1.63885 21.9851H15.5553L9.23218 8.29105C9.19702 8.21885 9.17687 8.14047 9.17292 8.06052C9.16897 7.98056 9.18129 7.90064 9.20917 7.82543C9.23704 7.75021 9.27991 7.68122 9.33526 7.62249C9.3906 7.56377 9.45732 7.51649 9.53149 7.48342C9.60566 7.45035 9.68581 7.43217 9.76722 7.42992C9.84864 7.42768 9.92969 7.44143 10.0056 7.47036C10.0816 7.49929 10.1509 7.54283 10.2095 7.59842C10.2681 7.65401 10.3148 7.72053 10.3469 7.79409L17.0624 22.3382C17.1047 22.4299 17.1229 22.5305 17.1154 22.6309C17.1079 22.7312 17.0749 22.8282 17.0194 22.9127C16.9639 22.9973 16.8877 23.0669 16.7978 23.115C16.7079 23.1632 16.6071 23.1884 16.5047 23.1884Z" fill="#295C7A"/>
<path d="M8.6604 30.8625H8.53307C3.63205 30.8625 0.0741348 27.3856 0.0741348 22.5875C0.0741348 22.4279 0.138631 22.2749 0.253435 22.1621C0.368238 22.0492 0.523946 21.9858 0.686303 21.9858H16.5078C16.6701 21.9858 16.8258 22.0492 16.9406 22.1621C17.0555 22.2749 17.1199 22.4279 17.1199 22.5875C17.1199 27.3856 13.562 30.8625 8.6604 30.8625ZM1.3199 23.1891C1.59231 27.0288 4.48174 29.6592 8.53307 29.6592H8.6604C12.7123 29.6592 15.6012 27.0288 15.8742 23.1891H1.3199Z" fill="#295C7A"/>
<path d="M8.59674 8.96078C8.00151 8.96078 7.41965 8.7873 6.92474 8.46228C6.42983 8.13726 6.0441 7.6753 5.81635 7.13482C5.58859 6.59434 5.52903 5.99961 5.6452 5.42586C5.76137 4.85211 6.04805 4.3251 6.46898 3.91149C6.88992 3.49787 7.4262 3.21622 8.01001 3.10217C8.59382 2.98811 9.19893 3.04677 9.74882 3.27072C10.2987 3.49468 10.7687 3.87386 11.0993 4.36033C11.4299 4.8468 11.6063 5.4187 11.6062 6.0037C11.6052 6.78778 11.2878 7.53946 10.7236 8.09383C10.1594 8.6482 9.39454 8.95999 8.59674 8.96078ZM8.59674 4.2493C8.24369 4.2493 7.89856 4.3522 7.60501 4.54497C7.31145 4.73775 7.08265 5.01175 6.94754 5.33232C6.81244 5.6529 6.77708 6.00565 6.84596 6.34597C6.91484 6.68629 7.08485 6.99889 7.3345 7.24425C7.58415 7.4896 7.90222 7.65669 8.24849 7.72439C8.59476 7.79208 8.95368 7.75734 9.27987 7.62455C9.60605 7.49177 9.88484 7.2669 10.081 6.97839C10.2771 6.68988 10.3818 6.35069 10.3818 6.0037C10.3813 5.53855 10.1931 5.09259 9.85845 4.76368C9.52379 4.43477 9.07003 4.24978 8.59674 4.2493Z" fill="#295C7A"/>
</g>
<defs>
<clipPath id="clip0_1_464">
<rect width="43" height="36" fill="white"/>
</clipPath>
</defs>
</svg>
