<?xml version="1.0" encoding="utf-8"?>
<!-- Generator: Adobe Illustrator 25.2.1, SVG Export Plug-In . SVG Version: 6.00 Build 0)  -->
<svg version="1.1" id="Layer_1" xmlns="http://www.w3.org/2000/svg" xmlns:xlink="http://www.w3.org/1999/xlink" x="0px" y="0px"
	 viewBox="0 0 48 48" style="enable-background:new 0 0 48 48;" xml:space="preserve">
<style type="text/css">
	.st0{clip-path:url(#SVGID_2_);}
	.st1{fill:#295C7A;}
</style>
<g>
	<defs>
		<rect id="SVGID_1_" x="2.9" y="2" width="42.2" height="44"/>
	</defs>
	<use xlink:href="#SVGID_1_"  style="display:none;overflow:visible;fill:#295C7A;"/>
	<clipPath id="SVGID_2_">
		<use xlink:href="#SVGID_1_"  style="display:none;overflow:visible;"/>
	</clipPath>
	<g class="st0">
		<path class="st1" d="M17.2,10.5H9.5c-0.7,0-1.3,0.6-1.3,1.3s0.6,1.3,1.3,1.3h7.7c0.7,0,1.3-0.6,1.3-1.3S17.9,10.5,17.2,10.5z"/>
		<path class="st1" d="M17.2,15.6H9.5c-0.7,0-1.3,0.6-1.3,1.3s0.6,1.3,1.3,1.3h7.7c0.7,0,1.3-0.6,1.3-1.3S17.9,15.6,17.2,15.6z"/>
		<path class="st1" d="M17.2,20.8H9.5c-0.7,0-1.3,0.6-1.3,1.3s0.6,1.3,1.3,1.3h7.7c0.7,0,1.3-0.6,1.3-1.3S17.9,20.8,17.2,20.8z"/>
		<path class="st1" d="M17.2,25.9H9.5c-0.7,0-1.3,0.6-1.3,1.3c0,0.7,0.6,1.3,1.3,1.3h7.7c0.7,0,1.3-0.6,1.3-1.3
			C18.5,26.5,17.9,25.9,17.2,25.9z"/>
		<path class="st1" d="M17.2,31.2H9.5c-0.7,0-1.3,0.6-1.3,1.3c0,0.7,0.6,1.3,1.3,1.3h7.7c0.7,0,1.3-0.6,1.3-1.3
			C18.5,31.8,17.9,31.2,17.2,31.2z"/>
		<path class="st1" d="M21.5,13.1h7.7c0.7,0,1.3-0.6,1.3-1.3s-0.6-1.3-1.3-1.3h-7.7c-0.7,0-1.3,0.6-1.3,1.3S20.8,13.1,21.5,13.1z"/>
		<path class="st1" d="M21.5,18.2h7.7c0.7,0,1.3-0.6,1.3-1.3s-0.6-1.3-1.3-1.3h-7.7c-0.7,0-1.3,0.6-1.3,1.3S20.8,18.2,21.5,18.2z"/>
		<path class="st1" d="M26.5,22.1c0-0.7-0.6-1.3-1.3-1.3h-3.7c-0.7,0-1.3,0.6-1.3,1.3s0.6,1.3,1.3,1.3h3.7
			C25.9,23.4,26.5,22.8,26.5,22.1z"/>
		<path class="st1" d="M38.7,31.7c-0.6-0.4-1.4-0.4-1.8,0.2l-3.3,4.1l-2.1-1.5c-0.6-0.4-1.4-0.3-1.8,0.3c-0.4,0.6-0.3,1.4,0.3,1.8
			l3,2.2c0.2,0.2,0.5,0.2,0.8,0.2c0.4,0,0.8-0.2,1-0.5l4.1-5.1C39.4,33,39.3,32.2,38.7,31.7z"/>
		<path class="st1" d="M42,27.8c-1.7-1.7-3.8-2.8-6.2-3.1V7.2c0-2.9-2.3-5.2-5.2-5.2H8.1C5.2,2,2.9,4.3,2.9,7.2v29.9
			c0,2.9,2.3,5.2,5.2,5.2h18.1c2,2.4,5,3.8,8.1,3.8c5.9,0,10.7-4.8,10.7-10.7C45.1,32.5,44,29.8,42,27.8L42,27.8z M5.5,37.1V7.2
			c0-1.4,1.2-2.6,2.6-2.6h22.5c1.4,0,2.6,1.2,2.6,2.6v17.4c-5.4,0.6-9.6,5.1-9.6,10.7c0,1.5,0.3,3,0.9,4.4H8.1
			C6.7,39.7,5.5,38.5,5.5,37.1z M34.4,43.4c-2.6,0-4.9-1.2-6.5-3.2c-1.1-1.4-1.6-3.1-1.6-4.9c0-4.5,3.6-8.1,8.1-8.1c0,0,0.1,0,0.1,0
			l0,0c2.1,0,4.1,0.9,5.6,2.4c1.5,1.5,2.3,3.6,2.3,5.7C42.5,39.8,38.8,43.4,34.4,43.4L34.4,43.4z"/>
	</g>
</g>
<image style="display:none;overflow:visible;" width="48" height="48" xlink:href="../../../AppServ/www/single-page/images/c1.png"  transform="matrix(1 0 0 1 -89.6452 19.3226)">
</image>
</svg>
